<svg width="14" height="13" viewBox="0 0 14 13" fill="none" xmlns="http://www.w3.org/2000/svg">
<path fill-rule="evenodd" clip-rule="evenodd" d="M1.6307 0.5H12.3682C12.5622 0.500062 12.7521 0.556535 12.9145 0.66254C13.077 0.768546 13.2051 0.919507 13.2833 1.09703C13.3614 1.27456 13.3863 1.47098 13.3548 1.66238C13.3233 1.85341 13.2371 2.0312 13.1066 2.17417L13.1059 2.175L8.99945 6.69393V10.2293C9.00053 10.3957 8.95985 10.5596 8.88111 10.7061C8.8025 10.8524 8.68849 10.9767 8.54953 11.0675L6.5515 12.3975L6.54948 12.3988C6.39943 12.4976 6.22553 12.5542 6.04606 12.5626C5.86659 12.571 5.68818 12.5308 5.52958 12.4464C5.37098 12.362 5.23805 12.2364 5.14477 12.0829C5.05149 11.9293 5.0013 11.7535 4.99948 11.5738L4.99942 11.5688L4.99945 6.69396L4.99813 6.69254L0.893042 2.175C0.762486 2.03201 0.675576 1.85345 0.644132 1.66238C0.612635 1.47098 0.637481 1.27456 0.715646 1.09703C0.79381 0.919507 0.921917 0.768546 1.08436 0.66254C1.2467 0.556605 1.43686 0.500136 1.6307 0.5ZM12.368 1.5H1.63086L1.63199 1.50124L5.73632 6.01788C5.90704 6.20212 6.00115 6.44452 5.99945 6.69571V11.5637L7.99944 10.2324L7.99943 10.2312L7.99945 6.69571C7.99776 6.44451 8.09186 6.20212 8.26258 6.01788L12.3669 1.50124L12.368 1.5Z" fill="#2255EA"/>
</svg>
