<svg width="17" height="16" viewBox="0 0 17 16" fill="none" xmlns="http://www.w3.org/2000/svg">
<path fill-rule="evenodd" clip-rule="evenodd" d="M3.10039 7.2499C3.10039 4.68178 5.18227 2.5999 7.75039 2.5999C10.3185 2.5999 12.4004 4.68178 12.4004 7.2499C12.4004 9.81802 10.3185 11.8999 7.75039 11.8999C5.18227 11.8999 3.10039 9.81802 3.10039 7.2499ZM7.75039 1.3999C4.51952 1.3999 1.90039 4.01904 1.90039 7.2499C1.90039 10.4808 4.51952 13.0999 7.75039 13.0999C9.14972 13.0999 10.4343 12.6086 11.441 11.7891L14.0761 14.4242C14.3104 14.6585 14.6903 14.6585 14.9246 14.4242C15.159 14.1898 15.159 13.8099 14.9246 13.5756L12.2895 10.9405C13.1091 9.9338 13.6004 8.64923 13.6004 7.2499C13.6004 4.01904 10.9813 1.3999 7.75039 1.3999Z" fill="white"/>
</svg>
