<svg width="16" height="16" viewBox="0 0 16 16" fill="none" xmlns="http://www.w3.org/2000/svg">
<path fill-rule="evenodd" clip-rule="evenodd" d="M5.33008 8C5.33008 7.72386 5.55394 7.5 5.83008 7.5H13.4993C13.7755 7.5 13.9993 7.72386 13.9993 8C13.9993 8.27614 13.7755 8.5 13.4993 8.5H5.83008C5.55394 8.5 5.33008 8.27614 5.33008 8Z" fill="#2255EA"/>
<path fill-rule="evenodd" clip-rule="evenodd" d="M2 4.6665C2 4.39036 2.22386 4.1665 2.5 4.1665H13.5C13.7761 4.1665 14 4.39036 14 4.6665C14 4.94265 13.7761 5.1665 13.5 5.1665H2.5C2.22386 5.1665 2 4.94265 2 4.6665Z" fill="#2255EA"/>
<path fill-rule="evenodd" clip-rule="evenodd" d="M8.66211 11.3335C8.66211 11.0574 8.88597 10.8335 9.16211 10.8335L13.4991 10.8335C13.7753 10.8335 13.9991 11.0574 13.9991 11.3335C13.9991 11.6096 13.7753 11.8335 13.4991 11.8335H9.16211C8.88597 11.8335 8.66211 11.6096 8.66211 11.3335Z" fill="#2255EA"/>
</svg>
